<svg width="772" height="772" viewBox="0 0 772 772" fill="#72aee6" xmlns="http://www.w3.org/2000/svg">
<path fill-rule="evenodd" clip-rule="evenodd" d="M386 772C599.182 772 772 599.182 772 386C772 172.818 599.182 0 386 0C172.818 0 0 172.818 0 386C0 599.182 172.818 772 386 772ZM261.713 343.886L261.675 343.968C222.417 426.994 183.159 510.019 143.902 592.952H244.847C276.627 528.739 308.407 464.434 340.187 400.128C371.965 335.827 403.742 271.527 435.52 207.32L379.44 95C340.197 177.9 300.955 260.893 261.713 343.886ZM436.673 404.075C452.906 370.745 469.139 337.415 485.467 304.085C509.301 352.229 533.042 400.374 556.782 448.518C580.523 496.663 604.264 544.807 628.098 592.952H519.248C513.054 578.693 506.767 564.527 500.48 550.362C494.193 536.196 487.906 522.031 481.713 507.773H386L387.877 504.069C404.205 470.738 420.439 437.406 436.673 404.075Z" fill="#72aee6"/>
</svg>